<svg xmlns="http://www.w3.org/2000/svg" version="1.1" shape-rendering="crispEdges" viewBox="0 0 16 16"><rect width="1.5" height="1.5" x="0" y="0" fill="#000000" /><rect width="1.5" height="1.5" x="1" y="0" fill="#000000" /><rect width="1.5" height="1.5" x="2" y="0" fill="#000000" /><rect width="1.5" height="1.5" x="3" y="0" fill="#000000" /><rect width="1.5" height="1.5" x="4" y="0" fill="#000000" /><rect width="1.5" height="1.5" x="5" y="0" fill="#000000" /><rect width="1.5" height="1.5" x="6" y="0" fill="#000000" /><rect width="1.5" height="1.5" x="7" y="0" fill="#000000" /><rect width="1.5" height="1.5" x="8" y="0" fill="#000000" /><rect width="1.5" height="1.5" x="9" y="0" fill="#000000" /><rect width="1.5" height="1.5" x="10" y="0" fill="#000000" /><rect width="1.5" height="1.5" x="11" y="0" fill="#000000" /><rect width="1.5" height="1.5" x="12" y="0" fill="#000000" /><rect width="1.5" height="1.5" x="13" y="0" fill="#000000" /><rect width="1.5" height="1.5" x="14" y="0" fill="#000000" /><rect width="1.5" height="1.5" x="15" y="0" fill="#000000" /><rect width="1.5" height="1.5" x="0" y="1" fill="#000000" /><rect width="1.5" height="1.5" x="1" y="1" fill="#000000" /><rect width="1.5" height="1.5" x="2" y="1" fill="#000000" /><rect width="1.5" height="1.5" x="3" y="1" fill="#000000" /><rect width="1.5" height="1.5" x="4" y="1" fill="#000000" /><rect width="1.5" height="1.5" x="5" y="1" fill="#000000" /><rect width="1.5" height="1.5" x="6" y="1" fill="#864300" /><rect width="1.5" height="1.5" x="7" y="1" fill="#864300" /><rect width="1.5" height="1.5" x="8" y="1" fill="#864300" /><rect width="1.5" height="1.5" x="9" y="1" fill="#864300" /><rect width="1.5" height="1.5" x="10" y="1" fill="#000000" /><rect width="1.5" height="1.5" x="11" y="1" fill="#000000" /><rect width="1.5" height="1.5" x="12" y="1" fill="#000000" /><rect width="1.5" height="1.5" x="13" y="1" fill="#000000" /><rect width="1.5" height="1.5" x="14" y="1" fill="#000000" /><rect width="1.5" height="1.5" x="15" y="1" fill="#000000" /><rect width="1.5" height="1.5" x="0" y="2" fill="#000000" /><rect width="1.5" height="1.5" x="1" y="2" fill="#000000" /><rect width="1.5" height="1.5" x="2" y="2" fill="#000000" /><rect width="1.5" height="1.5" x="3" y="2" fill="#000000" /><rect width="1.5" height="1.5" x="4" y="2" fill="#864300" /><rect width="1.5" height="1.5" x="5" y="2" fill="#864300" /><rect width="1.5" height="1.5" x="6" y="2" fill="#864300" /><rect width="1.5" height="1.5" x="7" y="2" fill="#F4D199" /><rect width="1.5" height="1.5" x="8" y="2" fill="#F4D199" /><rect width="1.5" height="1.5" x="9" y="2" fill="#864300" /><rect width="1.5" height="1.5" x="10" y="2" fill="#864300" /><rect width="1.5" height="1.5" x="11" y="2" fill="#864300" /><rect width="1.5" height="1.5" x="12" y="2" fill="#000000" /><rect width="1.5" height="1.5" x="13" y="2" fill="#000000" /><rect width="1.5" height="1.5" x="14" y="2" fill="#000000" /><rect width="1.5" height="1.5" x="15" y="2" fill="#000000" /><rect width="1.5" height="1.5" x="0" y="3" fill="#000000" /><rect width="1.5" height="1.5" x="1" y="3" fill="#000000" /><rect width="1.5" height="1.5" x="2" y="3" fill="#000000" /><rect width="1.5" height="1.5" x="3" y="3" fill="#864300" /><rect width="1.5" height="1.5" x="4" y="3" fill="#864300" /><rect width="1.5" height="1.5" x="5" y="3" fill="#F4D199" /><rect width="1.5" height="1.5" x="6" y="3" fill="#F4D199" /><rect width="1.5" height="1.5" x="7" y="3" fill="#F4D199" /><rect width="1.5" height="1.5" x="8" y="3" fill="#F4D199" /><rect width="1.5" height="1.5" x="9" y="3" fill="#F4D199" /><rect width="1.5" height="1.5" x="10" y="3" fill="#F4D199" /><rect width="1.5" height="1.5" x="11" y="3" fill="#864300" /><rect width="1.5" height="1.5" x="12" y="3" fill="#864300" /><rect width="1.5" height="1.5" x="13" y="3" fill="#000000" /><rect width="1.5" height="1.5" x="14" y="3" fill="#000000" /><rect width="1.5" height="1.5" x="15" y="3" fill="#000000" /><rect width="1.5" height="1.5" x="0" y="4" fill="#000000" /><rect width="1.5" height="1.5" x="1" y="4" fill="#000000" /><rect width="1.5" height="1.5" x="2" y="4" fill="#F4D199" /><rect width="1.5" height="1.5" x="3" y="4" fill="#864300" /><rect width="1.5" height="1.5" x="4" y="4" fill="#F4D199" /><rect width="1.5" height="1.5" x="5" y="4" fill="#F4D199" /><rect width="1.5" height="1.5" x="6" y="4" fill="#F4D199" /><rect width="1.5" height="1.5" x="7" y="4" fill="#F4D199" /><rect width="1.5" height="1.5" x="8" y="4" fill="#F4D199" /><rect width="1.5" height="1.5" x="9" y="4" fill="#F4D199" /><rect width="1.5" height="1.5" x="10" y="4" fill="#F4D199" /><rect width="1.5" height="1.5" x="11" y="4" fill="#F4D199" /><rect width="1.5" height="1.5" x="12" y="4" fill="#864300" /><rect width="1.5" height="1.5" x="13" y="4" fill="#F4D199" /><rect width="1.5" height="1.5" x="14" y="4" fill="#000000" /><rect width="1.5" height="1.5" x="15" y="4" fill="#000000" /><rect width="1.5" height="1.5" x="0" y="5" fill="#000000" /><rect width="1.5" height="1.5" x="1" y="5" fill="#F4D199" /><rect width="1.5" height="1.5" x="2" y="5" fill="#F4D199" /><rect width="1.5" height="1.5" x="3" y="5" fill="#864300" /><rect width="1.5" height="1.5" x="4" y="5" fill="#F4D199" /><rect width="1.5" height="1.5" x="5" y="5" fill="#FFFFFF" /><rect width="1.5" height="1.5" x="6" y="5" fill="#FFFFFF" /><rect width="1.5" height="1.5" x="7" y="5" fill="#F4D199" /><rect width="1.5" height="1.5" x="8" y="5" fill="#F4D199" /><rect width="1.5" height="1.5" x="9" y="5" fill="#FFFFFF" /><rect width="1.5" height="1.5" x="10" y="5" fill="#FFFFFF" /><rect width="1.5" height="1.5" x="11" y="5" fill="#F4D199" /><rect width="1.5" height="1.5" x="12" y="5" fill="#864300" /><rect width="1.5" height="1.5" x="13" y="5" fill="#F4D199" /><rect width="1.5" height="1.5" x="14" y="5" fill="#F4D199" /><rect width="1.5" height="1.5" x="15" y="5" fill="#000000" /><rect width="1.5" height="1.5" x="0" y="6" fill="#000000" /><rect width="1.5" height="1.5" x="1" y="6" fill="#F4D199" /><rect width="1.5" height="1.5" x="2" y="6" fill="#F4D199" /><rect width="1.5" height="1.5" x="3" y="6" fill="#864300" /><rect width="1.5" height="1.5" x="4" y="6" fill="#F4D199" /><rect width="1.5" height="1.5" x="5" y="6" fill="#FFFFFF" /><rect width="1.5" height="1.5" x="6" y="6" fill="#000000" /><rect width="1.5" height="1.5" x="7" y="6" fill="#F4D199" /><rect width="1.5" height="1.5" x="8" y="6" fill="#F4D199" /><rect width="1.5" height="1.5" x="9" y="6" fill="#FFFFFF" /><rect width="1.5" height="1.5" x="10" y="6" fill="#000000" /><rect width="1.5" height="1.5" x="11" y="6" fill="#F4D199" /><rect width="1.5" height="1.5" x="12" y="6" fill="#864300" /><rect width="1.5" height="1.5" x="13" y="6" fill="#F4D199" /><rect width="1.5" height="1.5" x="14" y="6" fill="#F4D199" /><rect width="1.5" height="1.5" x="15" y="6" fill="#000000" /><rect width="1.5" height="1.5" x="0" y="7" fill="#000000" /><rect width="1.5" height="1.5" x="1" y="7" fill="#F4D199" /><rect width="1.5" height="1.5" x="2" y="7" fill="#F4D199" /><rect width="1.5" height="1.5" x="3" y="7" fill="#864300" /><rect width="1.5" height="1.5" x="4" y="7" fill="#F4D199" /><rect width="1.5" height="1.5" x="5" y="7" fill="#F4D199" /><rect width="1.5" height="1.5" x="6" y="7" fill="#F4D199" /><rect width="1.5" height="1.5" x="7" y="7" fill="#F4D199" /><rect width="1.5" height="1.5" x="8" y="7" fill="#F4D199" /><rect width="1.5" height="1.5" x="9" y="7" fill="#F4D199" /><rect width="1.5" height="1.5" x="10" y="7" fill="#F4D199" /><rect width="1.5" height="1.5" x="11" y="7" fill="#F4D199" /><rect width="1.5" height="1.5" x="12" y="7" fill="#864300" /><rect width="1.5" height="1.5" x="13" y="7" fill="#F4D199" /><rect width="1.5" height="1.5" x="14" y="7" fill="#F4D199" /><rect width="1.5" height="1.5" x="15" y="7" fill="#000000" /><rect width="1.5" height="1.5" x="0" y="8" fill="#000000" /><rect width="1.5" height="1.5" x="1" y="8" fill="#000000" /><rect width="1.5" height="1.5" x="2" y="8" fill="#F4D199" /><rect width="1.5" height="1.5" x="3" y="8" fill="#864300" /><rect width="1.5" height="1.5" x="4" y="8" fill="#864300" /><rect width="1.5" height="1.5" x="5" y="8" fill="#F4D199" /><rect width="1.5" height="1.5" x="6" y="8" fill="#F4D199" /><rect width="1.5" height="1.5" x="7" y="8" fill="#F4D199" /><rect width="1.5" height="1.5" x="8" y="8" fill="#F4D199" /><rect width="1.5" height="1.5" x="9" y="8" fill="#F4D199" /><rect width="1.5" height="1.5" x="10" y="8" fill="#F4D199" /><rect width="1.5" height="1.5" x="11" y="8" fill="#864300" /><rect width="1.5" height="1.5" x="12" y="8" fill="#864300" /><rect width="1.5" height="1.5" x="13" y="8" fill="#F4D199" /><rect width="1.5" height="1.5" x="14" y="8" fill="#000000" /><rect width="1.5" height="1.5" x="15" y="8" fill="#000000" /><rect width="1.5" height="1.5" x="0" y="9" fill="#000000" /><rect width="1.5" height="1.5" x="1" y="9" fill="#000000" /><rect width="1.5" height="1.5" x="2" y="9" fill="#000000" /><rect width="1.5" height="1.5" x="3" y="9" fill="#864300" /><rect width="1.5" height="1.5" x="4" y="9" fill="#864300" /><rect width="1.5" height="1.5" x="5" y="9" fill="#FFFFFF" /><rect width="1.5" height="1.5" x="6" y="9" fill="#F4D199" /><rect width="1.5" height="1.5" x="7" y="9" fill="#F4D199" /><rect width="1.5" height="1.5" x="8" y="9" fill="#F4D199" /><rect width="1.5" height="1.5" x="9" y="9" fill="#F4D199" /><rect width="1.5" height="1.5" x="10" y="9" fill="#FFFFFF" /><rect width="1.5" height="1.5" x="11" y="9" fill="#864300" /><rect width="1.5" height="1.5" x="12" y="9" fill="#864300" /><rect width="1.5" height="1.5" x="13" y="9" fill="#000000" /><rect width="1.5" height="1.5" x="14" y="9" fill="#000000" /><rect width="1.5" height="1.5" x="15" y="9" fill="#000000" /><rect width="1.5" height="1.5" x="0" y="10" fill="#000000" /><rect width="1.5" height="1.5" x="1" y="10" fill="#000000" /><rect width="1.5" height="1.5" x="2" y="10" fill="#000000" /><rect width="1.5" height="1.5" x="3" y="10" fill="#000000" /><rect width="1.5" height="1.5" x="4" y="10" fill="#864300" /><rect width="1.5" height="1.5" x="5" y="10" fill="#FFFFFF" /><rect width="1.5" height="1.5" x="6" y="10" fill="#FFFFFF" /><rect width="1.5" height="1.5" x="7" y="10" fill="#000000" /><rect width="1.5" height="1.5" x="8" y="10" fill="#FFFFFF" /><rect width="1.5" height="1.5" x="9" y="10" fill="#000000" /><rect width="1.5" height="1.5" x="10" y="10" fill="#FFFFFF" /><rect width="1.5" height="1.5" x="11" y="10" fill="#864300" /><rect width="1.5" height="1.5" x="12" y="10" fill="#000000" /><rect width="1.5" height="1.5" x="13" y="10" fill="#000000" /><rect width="1.5" height="1.5" x="14" y="10" fill="#000000" /><rect width="1.5" height="1.5" x="15" y="10" fill="#000000" /><rect width="1.5" height="1.5" x="0" y="11" fill="#000000" /><rect width="1.5" height="1.5" x="1" y="11" fill="#000000" /><rect width="1.5" height="1.5" x="2" y="11" fill="#000000" /><rect width="1.5" height="1.5" x="3" y="11" fill="#000000" /><rect width="1.5" height="1.5" x="4" y="11" fill="#864300" /><rect width="1.5" height="1.5" x="5" y="11" fill="#F4D199" /><rect width="1.5" height="1.5" x="6" y="11" fill="#FFFFFF" /><rect width="1.5" height="1.5" x="7" y="11" fill="#FFFFFF" /><rect width="1.5" height="1.5" x="8" y="11" fill="#FFFFFF" /><rect width="1.5" height="1.5" x="9" y="11" fill="#FFFFFF" /><rect width="1.5" height="1.5" x="10" y="11" fill="#F4D199" /><rect width="1.5" height="1.5" x="11" y="11" fill="#864300" /><rect width="1.5" height="1.5" x="12" y="11" fill="#000000" /><rect width="1.5" height="1.5" x="13" y="11" fill="#000000" /><rect width="1.5" height="1.5" x="14" y="11" fill="#000000" /><rect width="1.5" height="1.5" x="15" y="11" fill="#000000" /><rect width="1.5" height="1.5" x="0" y="12" fill="#000000" /><rect width="1.5" height="1.5" x="1" y="12" fill="#000000" /><rect width="1.5" height="1.5" x="2" y="12" fill="#000000" /><rect width="1.5" height="1.5" x="3" y="12" fill="#000000" /><rect width="1.5" height="1.5" x="4" y="12" fill="#864300" /><rect width="1.5" height="1.5" x="5" y="12" fill="#864300" /><rect width="1.5" height="1.5" x="6" y="12" fill="#F4D199" /><rect width="1.5" height="1.5" x="7" y="12" fill="#000000" /><rect width="1.5" height="1.5" x="8" y="12" fill="#FFFFFF" /><rect width="1.5" height="1.5" x="9" y="12" fill="#F4D199" /><rect width="1.5" height="1.5" x="10" y="12" fill="#864300" /><rect width="1.5" height="1.5" x="11" y="12" fill="#864300" /><rect width="1.5" height="1.5" x="12" y="12" fill="#000000" /><rect width="1.5" height="1.5" x="13" y="12" fill="#000000" /><rect width="1.5" height="1.5" x="14" y="12" fill="#000000" /><rect width="1.5" height="1.5" x="15" y="12" fill="#000000" /><rect width="1.5" height="1.5" x="0" y="13" fill="#000000" /><rect width="1.5" height="1.5" x="1" y="13" fill="#000000" /><rect width="1.5" height="1.5" x="2" y="13" fill="#000000" /><rect width="1.5" height="1.5" x="3" y="13" fill="#000000" /><rect width="1.5" height="1.5" x="4" y="13" fill="#000000" /><rect width="1.5" height="1.5" x="5" y="13" fill="#864300" /><rect width="1.5" height="1.5" x="6" y="13" fill="#864300" /><rect width="1.5" height="1.5" x="7" y="13" fill="#864300" /><rect width="1.5" height="1.5" x="8" y="13" fill="#864300" /><rect width="1.5" height="1.5" x="9" y="13" fill="#864300" /><rect width="1.5" height="1.5" x="10" y="13" fill="#864300" /><rect width="1.5" height="1.5" x="11" y="13" fill="#000000" /><rect width="1.5" height="1.5" x="12" y="13" fill="#000000" /><rect width="1.5" height="1.5" x="13" y="13" fill="#000000" /><rect width="1.5" height="1.5" x="14" y="13" fill="#000000" /><rect width="1.5" height="1.5" x="15" y="13" fill="#000000" /><rect width="1.5" height="1.5" x="0" y="14" fill="#000000" /><rect width="1.5" height="1.5" x="1" y="14" fill="#000000" /><rect width="1.5" height="1.5" x="2" y="14" fill="#000000" /><rect width="1.5" height="1.5" x="3" y="14" fill="#000000" /><rect width="1.5" height="1.5" x="4" y="14" fill="#000000" /><rect width="1.5" height="1.5" x="5" y="14" fill="#000000" /><rect width="1.5" height="1.5" x="6" y="14" fill="#864300" /><rect width="1.5" height="1.5" x="7" y="14" fill="#864300" /><rect width="1.5" height="1.5" x="8" y="14" fill="#864300" /><rect width="1.5" height="1.5" x="9" y="14" fill="#864300" /><rect width="1.5" height="1.5" x="10" y="14" fill="#000000" /><rect width="1.5" height="1.5" x="11" y="14" fill="#000000" /><rect width="1.5" height="1.5" x="12" y="14" fill="#000000" /><rect width="1.5" height="1.5" x="13" y="14" fill="#000000" /><rect width="1.5" height="1.5" x="14" y="14" fill="#000000" /><rect width="1.5" height="1.5" x="15" y="14" fill="#000000" /><rect width="1.5" height="1.5" x="0" y="15" fill="#000000" /><rect width="1.5" height="1.5" x="1" y="15" fill="#000000" /><rect width="1.5" height="1.5" x="2" y="15" fill="#000000" /><rect width="1.5" height="1.5" x="3" y="15" fill="#000000" /><rect width="1.5" height="1.5" x="4" y="15" fill="#000000" /><rect width="1.5" height="1.5" x="5" y="15" fill="#000000" /><rect width="1.5" height="1.5" x="6" y="15" fill="#000000" /><rect width="1.5" height="1.5" x="7" y="15" fill="#000000" /><rect width="1.5" height="1.5" x="8" y="15" fill="#000000" /><rect width="1.5" height="1.5" x="9" y="15" fill="#000000" /><rect width="1.5" height="1.5" x="10" y="15" fill="#000000" /><rect width="1.5" height="1.5" x="11" y="15" fill="#000000" /><rect width="1.5" height="1.5" x="12" y="15" fill="#000000" /><rect width="1.5" height="1.5" x="13" y="15" fill="#000000" /><rect width="1.5" height="1.5" x="14" y="15" fill="#000000" /><rect width="1.5" height="1.5" x="15" y="15" fill="#000000" /></svg>